<svg width="10" height="11" viewBox="0 0 10 11" fill="none" xmlns="http://www.w3.org/2000/svg">
<path fill-rule="evenodd" clip-rule="evenodd" d="M9.8407 2.35118C9.8407 3.36979 9.14402 4.22568 8.20116 4.46835L8.20116 8.90932L7.10814 8.90932L7.10814 4.46835C6.16528 4.22568 5.46861 3.36979 5.46861 2.35118C5.46861 1.14386 6.44733 0.16513 7.65465 0.165131C8.86197 0.165131 9.8407 1.14386 9.8407 2.35118ZM6.56163 2.35118C6.56163 2.95484 7.05099 3.4442 7.65465 3.4442C8.25831 3.4442 8.74767 2.95484 8.74767 2.35118C8.74767 1.74752 8.25831 1.25815 7.65465 1.25815C7.05099 1.25815 6.56163 1.74752 6.56163 2.35118Z" fill="white"/>
<path fill-rule="evenodd" clip-rule="evenodd" d="M0.550001 7.81629C0.550001 6.79768 1.24668 5.94179 2.18954 5.69912L2.18954 1.25815L3.28256 1.25815L3.28256 5.69912C4.22542 5.94179 4.92209 6.79768 4.92209 7.81629C4.92209 9.02361 3.94337 10.0023 2.73605 10.0023C1.52873 10.0023 0.550001 9.02361 0.550001 7.81629ZM1.64302 7.81629C1.64302 8.41995 2.13239 8.90932 2.73605 8.90932C3.33971 8.90932 3.82907 8.41995 3.82907 7.81629C3.82907 7.21263 3.33971 6.72327 2.73605 6.72327C2.13239 6.72327 1.64302 7.21263 1.64302 7.81629Z" fill="white"/>
</svg>
